<svg width="50" height="56" viewBox="0 0 50 56" fill="none" xmlns="http://www.w3.org/2000/svg">
<g filter="url(#filter0_d_49_286)">
<path d="M21.5 4.44338C23.047 3.55021 24.953 3.55021 26.5 4.44338L41.4186 13.0566C42.9656 13.9498 43.9186 15.6004 43.9186 17.3868V34.6132C43.9186 36.3996 42.9656 38.0502 41.4186 38.9434L26.5 47.5566C24.953 48.4498 23.047 48.4498 21.5 47.5566L6.58142 38.9434C5.03441 38.0502 4.08142 36.3996 4.08142 34.6132V17.3868C4.08142 15.6004 5.03441 13.9498 6.58142 13.0566L21.5 4.44338Z" fill="#17B890"/>
<path d="M25.9 5.48261L40.8186 14.0959C41.9943 14.7747 42.7186 16.0291 42.7186 17.3868V34.6132C42.7186 35.9709 41.9943 37.2253 40.8186 37.9041L25.9 46.5174C24.7243 47.1962 23.2757 47.1962 22.1 46.5174L7.18142 37.9041C6.00569 37.2253 5.28141 35.9709 5.28141 34.6132V17.3868C5.28141 16.0291 6.00569 14.7747 7.18142 14.0959L22.1 5.48261C23.2757 4.8038 24.7243 4.8038 25.9 5.48261Z" stroke="#9DC5BB" stroke-width="2.4"/>
</g>
<mask id="path-3-inside-1_49_286" fill="white">
<path d="M32.4025 21.0098C32.4603 21.0777 32.5359 21.1268 32.6164 21.1545C32.4503 22.3816 31.6587 24.5513 31.3226 25.392C31.2521 25.5669 31.2874 25.7658 31.4145 25.9068C31.5315 26.0376 31.7077 26.0918 31.8827 26.0603C31.5907 26.7399 31.0281 27.4749 30.7676 27.7732C30.6166 27.9469 30.6052 28.2036 30.7412 28.3899C30.7978 28.4679 30.8758 28.5245 30.9602 28.5585C30.6367 29.2142 30.049 29.9819 29.6387 30.4337C29.5078 30.5772 29.4738 30.7836 29.5506 30.9623C29.6248 31.1335 29.7872 31.248 29.9722 31.2606C29.4713 31.7212 28.8836 31.9667 28.8748 31.9692C28.6407 32.0661 28.5161 32.3253 28.5891 32.5682C28.6042 32.6211 28.6293 32.6689 28.6595 32.7117C24.6184 36.5553 18.8253 36.6837 17.5781 36.6673C18.3105 34.9255 19.3098 33.521 20.2776 32.5368L27.2235 30.5785C27.4866 30.5042 27.6401 30.2311 27.5659 29.9681C27.4916 29.705 27.2185 29.5528 26.9555 29.6258L21.876 31.058C23.4718 29.5578 24.7102 28.0991 25.6743 26.7399C25.6957 26.7311 25.7208 26.7336 25.741 26.7223L29.4147 24.5802C29.6513 24.4431 29.7306 24.1398 29.5934 23.9032C29.4562 23.6665 29.1541 23.5898 28.9175 23.7244L26.846 24.9314C28.769 21.6227 29.0082 19.2604 29.022 19.1031C29.0447 18.8312 28.8445 18.5921 28.5727 18.5682C28.3034 18.5556 28.0605 18.7482 28.0366 19.02C28.034 19.0565 27.7937 21.3508 25.8895 24.579L25.6642 20.6372C25.6478 20.3666 25.4414 20.1602 25.1419 20.1716C24.8688 20.1867 24.6599 20.4208 24.6762 20.6939L24.9783 25.9886C23.9324 27.4988 22.5279 29.1475 20.6539 30.834L20.8213 25.6978C20.8314 25.4247 20.6162 25.1957 20.3431 25.1869C20.0876 25.1768 19.8422 25.3933 19.8334 25.6651L19.6333 31.7779C18.6239 32.7897 17.5718 34.2257 16.7801 36.0053C11.2237 30.5684 15.5833 23.586 15.8174 23.2122C16.0464 22.6887 16.9035 21.517 17.5114 20.7228L17.5227 20.7417C17.5969 20.8726 17.7278 20.9632 17.8763 20.9858C18.0248 21.011 18.1771 20.9632 18.2879 20.8612L19.8623 19.4026C20.2298 18.9608 20.5734 18.7242 20.8012 18.757C21.0214 18.7872 21.1989 19.0729 21.2404 19.1685C21.321 19.356 21.506 19.4768 21.7136 19.4668C21.9175 19.458 22.0962 19.3258 22.1629 19.132C22.4323 18.3416 23.4655 18.1478 23.6984 18.1113C23.7726 18.0975 23.8431 18.0673 23.9035 18.022C24.9091 17.2769 25.5069 17.219 25.8354 17.3059C26.1966 17.4015 26.3375 17.7111 26.34 17.7174C26.3929 17.8508 26.5037 17.954 26.6383 18.0006C26.773 18.0459 26.9227 18.0308 27.0473 17.9603L29.83 16.3368L30.0213 16.4412C30.1043 16.4865 30.2013 16.5029 30.2969 16.4991C31.1867 16.4261 32.4087 15.4369 33.2344 14.6667C33.1676 17.652 32.3131 20.5101 32.303 20.5428C32.2552 20.7052 32.293 20.8814 32.4025 21.0098Z"/>
</mask>
<path d="M32.4025 21.0098C32.4603 21.0777 32.5359 21.1268 32.6164 21.1545C32.4503 22.3816 31.6587 24.5513 31.3226 25.392C31.2521 25.5669 31.2874 25.7658 31.4145 25.9068C31.5315 26.0376 31.7077 26.0918 31.8827 26.0603C31.5907 26.7399 31.0281 27.4749 30.7676 27.7732C30.6166 27.9469 30.6052 28.2036 30.7412 28.3899C30.7978 28.4679 30.8758 28.5245 30.9602 28.5585C30.6367 29.2142 30.049 29.9819 29.6387 30.4337C29.5078 30.5772 29.4738 30.7836 29.5506 30.9623C29.6248 31.1335 29.7872 31.248 29.9722 31.2606C29.4713 31.7212 28.8836 31.9667 28.8748 31.9692C28.6407 32.0661 28.5161 32.3253 28.5891 32.5682C28.6042 32.6211 28.6293 32.6689 28.6595 32.7117C24.6184 36.5553 18.8253 36.6837 17.5781 36.6673C18.3105 34.9255 19.3098 33.521 20.2776 32.5368L27.2235 30.5785C27.4866 30.5042 27.6401 30.2311 27.5659 29.9681C27.4916 29.705 27.2185 29.5528 26.9555 29.6258L21.876 31.058C23.4718 29.5578 24.7102 28.0991 25.6743 26.7399C25.6957 26.7311 25.7208 26.7336 25.741 26.7223L29.4147 24.5802C29.6513 24.4431 29.7306 24.1398 29.5934 23.9032C29.4562 23.6665 29.1541 23.5898 28.9175 23.7244L26.846 24.9314C28.769 21.6227 29.0082 19.2604 29.022 19.1031C29.0447 18.8312 28.8445 18.5921 28.5727 18.5682C28.3034 18.5556 28.0605 18.7482 28.0366 19.02C28.034 19.0565 27.7937 21.3508 25.8895 24.579L25.6642 20.6372C25.6478 20.3666 25.4414 20.1602 25.1419 20.1716C24.8688 20.1867 24.6599 20.4208 24.6762 20.6939L24.9783 25.9886C23.9324 27.4988 22.5279 29.1475 20.6539 30.834L20.8213 25.6978C20.8314 25.4247 20.6162 25.1957 20.3431 25.1869C20.0876 25.1768 19.8422 25.3933 19.8334 25.6651L19.6333 31.7779C18.6239 32.7897 17.5718 34.2257 16.7801 36.0053C11.2237 30.5684 15.5833 23.586 15.8174 23.2122C16.0464 22.6887 16.9035 21.517 17.5114 20.7228L17.5227 20.7417C17.5969 20.8726 17.7278 20.9632 17.8763 20.9858C18.0248 21.011 18.1771 20.9632 18.2879 20.8612L19.8623 19.4026C20.2298 18.9608 20.5734 18.7242 20.8012 18.757C21.0214 18.7872 21.1989 19.0729 21.2404 19.1685C21.321 19.356 21.506 19.4768 21.7136 19.4668C21.9175 19.458 22.0962 19.3258 22.1629 19.132C22.4323 18.3416 23.4655 18.1478 23.6984 18.1113C23.7726 18.0975 23.8431 18.0673 23.9035 18.022C24.9091 17.2769 25.5069 17.219 25.8354 17.3059C26.1966 17.4015 26.3375 17.7111 26.34 17.7174C26.3929 17.8508 26.5037 17.954 26.6383 18.0006C26.773 18.0459 26.9227 18.0308 27.0473 17.9603L29.83 16.3368L30.0213 16.4412C30.1043 16.4865 30.2013 16.5029 30.2969 16.4991C31.1867 16.4261 32.4087 15.4369 33.2344 14.6667C33.1676 17.652 32.3131 20.5101 32.303 20.5428C32.2552 20.7052 32.293 20.8814 32.4025 21.0098Z" fill="#DEE5E5" stroke="#DEE5E5" stroke-width="2" mask="url(#path-3-inside-1_49_286)"/>
<defs>
<filter id="filter0_d_49_286" x="0.081543" y="0.773499" width="49.8369" height="54.453" filterUnits="userSpaceOnUse" color-interpolation-filters="sRGB">
<feFlood flood-opacity="0" result="BackgroundImageFix"/>
<feColorMatrix in="SourceAlpha" type="matrix" values="0 0 0 0 0 0 0 0 0 0 0 0 0 0 0 0 0 0 127 0" result="hardAlpha"/>
<feOffset dx="1" dy="2"/>
<feGaussianBlur stdDeviation="2.5"/>
<feComposite in2="hardAlpha" operator="out"/>
<feColorMatrix type="matrix" values="0 0 0 0 0 0 0 0 0 0 0 0 0 0 0 0 0 0 0.18 0"/>
<feBlend mode="normal" in2="BackgroundImageFix" result="effect1_dropShadow_49_286"/>
<feBlend mode="normal" in="SourceGraphic" in2="effect1_dropShadow_49_286" result="shape"/>
</filter>
</defs>
</svg>
