<svg width="36" height="36" viewBox="0 0 36 36" fill="none" xmlns="http://www.w3.org/2000/svg">
<path fill-rule="evenodd" clip-rule="evenodd" d="M10.222 10.2218C9.63624 10.8076 9.63624 11.7574 10.222 12.3431L15.8789 18L10.222 23.6569C9.63624 24.2426 9.63624 25.1924 10.222 25.7782C10.8078 26.364 11.7576 26.364 12.3433 25.7782L18.0002 20.1213L23.6571 25.7782C24.2428 26.364 25.1926 26.364 25.7784 25.7782C26.3642 25.1924 26.3642 24.2426 25.7784 23.6569L20.1215 18L25.7784 12.3431C26.3642 11.7574 26.3642 10.8076 25.7784 10.2218C25.1926 9.63604 24.2428 9.63604 23.6571 10.2218L18.0002 15.8787L12.3433 10.2218C11.7576 9.63604 10.8078 9.63604 10.222 10.2218Z" fill="#055425" style="mix-blend-mode:color-burn"/>
<path fill-rule="evenodd" clip-rule="evenodd" d="M10.222 10.2218C9.63624 10.8076 9.63624 11.7574 10.222 12.3431L15.8789 18L10.222 23.6569C9.63624 24.2426 9.63624 25.1924 10.222 25.7782C10.8078 26.364 11.7576 26.364 12.3433 25.7782L18.0002 20.1213L23.6571 25.7782C24.2428 26.364 25.1926 26.364 25.7784 25.7782C26.3642 25.1924 26.3642 24.2426 25.7784 23.6569L20.1215 18L25.7784 12.3431C26.3642 11.7574 26.3642 10.8076 25.7784 10.2218C25.1926 9.63604 24.2428 9.63604 23.6571 10.2218L18.0002 15.8787L12.3433 10.2218C11.7576 9.63604 10.8078 9.63604 10.222 10.2218Z" fill="black" fill-opacity="0.4"/>
<mask id="mask0_165_2185" style="mask-type:alpha" maskUnits="userSpaceOnUse" x="9" y="9" width="18" height="18">
<path fill-rule="evenodd" clip-rule="evenodd" d="M10.222 10.2218C9.63624 10.8076 9.63624 11.7574 10.222 12.3431L15.8789 18L10.222 23.6569C9.63624 24.2426 9.63624 25.1924 10.222 25.7782C10.8078 26.364 11.7576 26.364 12.3433 25.7782L18.0002 20.1213L23.6571 25.7782C24.2428 26.364 25.1926 26.364 25.7784 25.7782C26.3642 25.1924 26.3642 24.2426 25.7784 23.6569L20.1215 18L25.7784 12.3431C26.3642 11.7574 26.3642 10.8076 25.7784 10.2218C25.1926 9.63604 24.2428 9.63604 23.6571 10.2218L18.0002 15.8787L12.3433 10.2218C11.7576 9.63604 10.8078 9.63604 10.222 10.2218Z" fill="white"/>
</mask>
<g mask="url(#mask0_165_2185)">
</g>
</svg>
