<svg width="33" height="32" viewBox="0 0 33 32" fill="none" xmlns="http://www.w3.org/2000/svg">
<g clip-path="url(#clip0_49_2092)">
<path d="M17.3706 27.5238C23.7351 27.5238 28.8946 22.3644 28.8946 15.9998C28.8946 9.63534 23.7351 4.47589 17.3706 4.47589C11.0061 4.47589 5.84668 9.63534 5.84668 15.9998C5.84668 22.3644 11.0061 27.5238 17.3706 27.5238Z" fill="#4466FB"/>
<path d="M23.6903 6.36179C23.4118 6.37807 23.3795 6.54935 23.4623 7.13026C23.0842 7.04021 22.7146 7.38722 22.3291 7.16228C22.307 7.15037 22.2618 7.16019 22.2397 7.1595C21.8676 7.22645 21.8567 7.21489 21.9369 6.80249C21.9506 6.72465 21.9866 6.64723 21.9887 6.57997C21.9915 6.49056 21.9946 6.38967 21.975 6.29929L21.9302 6.29789C21.8654 6.57612 21.645 6.81585 21.7354 7.15501C21.7344 7.18865 21.664 7.28717 21.6304 7.28612C21.3609 7.30017 21.1443 7.41685 21.0344 7.7049C21.0113 7.72662 20.9762 7.77041 20.9538 7.76971C20.7513 7.79707 20.602 7.90435 20.5502 8.12715C20.5379 8.17138 20.4475 8.19101 20.4016 8.22324C20.3221 8.25442 20.2643 8.30873 20.1963 8.34027C20.128 8.3718 20.0485 8.40271 19.9801 8.43425C19.9006 8.47665 19.8435 8.50854 19.7636 8.55094C19.8067 8.60838 19.8491 8.68825 19.9037 8.73457C20.0243 8.81687 20.1571 8.87711 20.2552 8.96966C20.3744 9.09681 20.3846 9.4893 20.2584 9.58637C20.1782 9.63997 20.0342 9.57938 19.9343 9.55382C19.7444 9.52574 19.5786 9.45325 19.3996 9.44767C19.1866 9.44104 19.0685 9.63906 19.1519 9.83214C19.2035 9.97961 19.2108 10.103 19.1278 10.2463C19.0209 10.4447 19.0648 10.8273 19.1983 10.8651C19.3756 10.9377 19.5533 10.9881 19.7317 11.0161C19.8876 11.0546 20.0348 11.0031 20.0964 10.8257C20.266 10.4161 20.5435 10.1445 20.898 9.9202C20.9324 9.89883 20.9782 9.86659 21.001 9.85608C20.9257 9.75302 20.8836 9.66194 20.8297 9.59293C20.9425 9.57401 21.0318 9.58801 21.1198 9.63563C21.2859 9.70813 21.4415 9.74664 21.5497 9.51465C21.5872 9.39239 21.6878 9.39552 21.7631 9.49885C21.795 9.55568 21.8493 9.61348 21.8581 9.69229C21.9275 9.98593 22.1371 10.0934 22.3344 10.234C22.4223 10.2928 22.5317 10.3748 22.5622 10.4764C22.5934 10.5559 22.5776 10.7011 22.5416 10.7785C22.5062 10.8335 22.3944 10.83 22.3036 10.8608L22.1691 10.8566C22.1688 10.8679 22.1571 10.8899 22.1568 10.9011C22.222 10.9593 22.2974 11.0623 22.3765 11.0424C22.5787 11.0262 22.723 10.7171 22.7227 10.3583C22.8005 10.3831 22.8674 10.3964 22.9448 10.4322C22.9564 10.4216 22.9686 10.3884 22.9802 10.3775C22.8383 10.2497 22.6848 10.1439 22.5544 10.0054C22.369 9.84285 22.1594 9.73533 22.1577 9.43259C22.138 9.34221 22.0637 9.20552 22.2105 9.17643C22.3342 9.15784 22.4908 9.17394 22.4849 9.36424C22.4857 9.6894 22.6847 9.78537 22.8943 9.89261C22.9829 9.92904 23.0713 9.96545 23.1253 10.0345C23.1796 10.0923 23.2213 10.1945 23.2083 10.25C23.1351 10.4382 23.1758 10.5741 23.2722 10.7117C23.3153 10.7689 23.3468 10.8372 23.3675 10.894C23.4099 10.9738 23.4295 11.0639 23.4495 11.1431C23.5189 11.0779 23.5872 11.0352 23.6566 10.9703C23.6797 10.9486 23.7028 10.9269 23.7147 10.9048C23.8188 10.807 23.8321 10.7292 23.7119 10.6357C23.6352 10.5772 23.5934 10.4864 23.5282 10.417C23.7122 10.2657 23.8685 10.2817 24.0353 10.3318C24.1579 10.3581 24.3037 10.3514 24.3955 10.2869C24.4295 10.2656 24.38 10.0623 24.3839 9.93901C24.3761 9.82683 24.3467 9.69126 24.3943 9.60325C24.4441 9.44771 24.5376 9.31624 24.6196 9.20659C24.7012 9.10815 24.8169 8.98859 24.8614 9.0012C24.9833 9.04988 25.0689 9.1757 25.1438 9.29025C25.2097 9.33718 25.2395 9.46127 25.3068 9.46337C25.3846 9.47701 25.4876 9.41289 25.578 9.38232C25.5791 9.34869 25.5685 9.33714 25.5692 9.31473C25.4585 9.26639 25.3587 9.22962 25.2482 9.1813L25.2503 9.11431C25.5215 9.04422 25.7931 8.9629 26.0646 8.88187C26.0156 9.01472 25.9459 9.0911 25.8758 9.18963C25.7353 9.37573 25.7329 9.4542 25.8962 9.60516C25.9947 9.6865 26.1159 9.75761 26.1906 9.87214C26.2442 9.95208 26.2621 10.0985 26.2365 10.1987C26.2232 10.2656 26.0866 10.3284 26.0084 10.326C25.8743 10.3106 25.7302 10.2612 25.6202 10.1907C25.3675 10.0258 25.1208 10.0293 24.8811 10.1677C24.6768 10.2508 24.4947 10.3349 24.3012 10.4299C24.2554 10.4621 24.1755 10.5045 24.1741 10.5491C24.2351 10.7527 24.2733 10.9671 24.3683 11.1605C24.3889 11.2173 24.5778 11.268 24.6125 11.2354C24.7401 11.0935 24.8053 11.1629 24.9033 11.2557C25.0219 11.405 25.1336 11.4197 25.2608 11.2893C25.2959 11.2455 25.3298 11.2353 25.3414 11.2245C25.4045 11.3611 25.4455 11.4855 25.5211 11.5777C25.6288 11.7154 25.6263 11.7939 25.4883 11.9127C25.3965 11.9772 25.3026 12.1089 25.2995 12.2095C25.3044 12.4116 25.2368 12.4208 25.1141 12.4057C24.947 12.3669 24.7577 12.3273 24.6004 12.3448C24.1614 12.3985 23.784 12.2745 23.4107 12.0275C23.334 11.969 23.2008 11.9312 23.1542 11.9859C23.0856 12.0286 23.081 12.1741 23.0891 12.2753C23.1157 12.5003 23.0576 12.5658 22.8701 12.4702C22.6279 12.3283 22.3862 12.1636 22.1556 12.0109C21.925 11.8578 21.7967 11.6633 21.8849 11.3522C21.9246 11.1517 21.8159 11.0473 21.6246 11.0638C21.5124 11.0715 21.3881 11.1013 21.2885 11.0645C20.9108 10.9518 20.5733 10.9862 20.2191 11.1995C20.0247 11.3279 19.8091 11.4109 19.567 11.2687C19.5449 11.2568 19.4419 11.3209 19.3953 11.3756C19.2793 11.5063 19.1634 11.6262 19.0576 11.7797C18.9868 11.9009 18.8922 12.0548 18.8996 12.1784C18.9136 12.4479 18.8517 12.6365 18.646 12.7647C18.3373 12.9568 18.1593 13.2764 18.0143 13.6082C17.967 13.685 17.9418 13.774 17.8949 13.8399C17.7554 14.0036 17.7491 14.2053 17.8322 14.4096C17.9139 14.67 17.9059 14.9275 17.819 15.2051C17.7692 15.3604 17.729 15.572 17.8036 15.6978C17.9628 15.983 18.0995 16.2675 18.1675 16.606C18.1773 16.6512 18.1983 16.6967 18.2309 16.7311C18.4153 16.9276 18.5881 17.1347 18.7843 17.3203C18.9364 17.4707 19.113 17.5659 19.3078 17.4261C19.5139 17.287 19.7497 17.2719 19.9862 17.2343C20.0871 17.2375 20.1775 17.2179 20.2581 17.153C20.4645 17.0027 20.653 17.0644 20.8276 17.2157C20.9365 17.3201 21.0196 17.5356 21.2249 17.4188C21.2365 17.4077 21.2806 17.4315 21.302 17.4658C21.4769 17.6059 21.534 17.9326 21.4265 18.1424C21.2948 18.4185 21.2773 18.6197 21.4399 18.7928C21.6131 18.989 21.7413 19.1947 21.7554 19.4641C21.7638 19.5542 21.8055 19.6564 21.8479 19.736C22.0463 20.202 22.0656 20.6621 21.8057 21.0911C21.6158 21.4215 21.5945 21.746 21.7627 22.11C21.9085 22.4622 22.0091 22.835 22.0309 23.217C22.0439 23.52 22.113 23.8137 22.2283 24.0751C22.3763 24.3599 22.4681 24.6543 22.424 24.989C22.3939 25.2349 22.459 25.3042 22.6728 25.277C22.9647 25.2636 23.2464 25.2166 23.5282 25.1692C23.5733 25.1594 23.6308 25.1163 23.6767 25.0841C24.1136 24.728 24.4629 24.3127 24.494 23.6747C24.5108 23.4959 24.5914 23.4311 24.727 23.3907C24.7957 23.348 24.8766 23.2719 24.9008 23.2054C24.9624 23.028 24.9453 22.8595 24.8502 22.677C24.819 22.5974 24.8131 22.4292 24.8488 22.363C24.9774 22.1877 25.1284 22.0244 25.3004 21.8951C25.6676 21.6263 25.8781 20.9826 25.7578 20.5306C25.6653 20.2587 25.6404 19.9776 25.5822 19.6844C25.4735 19.2212 25.7065 18.9372 26.0173 18.6776C26.2471 18.4943 26.4886 18.3001 26.6423 18.0471C26.924 17.641 27.1626 17.1777 27.4005 16.7365C27.46 16.6264 27.4645 16.4807 27.502 16.3587C27.3787 16.3549 27.2556 16.3511 27.1537 16.3815C26.9287 16.4082 26.7132 16.491 26.4992 16.518C26.4431 16.5274 26.3667 16.458 26.3239 16.3894C26.2072 16.1728 26.0912 15.9448 25.9637 15.7166C25.9433 15.6487 25.9005 15.5913 25.8578 15.5229C25.7849 15.3411 25.7011 15.148 25.6401 14.9556C25.5283 14.5821 25.4273 14.2201 25.3158 13.8466C25.2646 13.6882 25.2359 13.5305 25.185 13.3718C25.1223 13.2243 25.0596 13.0765 24.9856 12.9286C25.0648 12.9086 25.1089 12.9324 25.1303 12.9667C25.3333 13.2867 25.5246 13.6178 25.7275 13.9493C25.7598 13.9839 25.7465 14.0508 25.7556 14.1184C25.7973 14.2205 25.8054 14.3217 25.8359 14.4234C26.0567 14.89 26.3234 15.3242 26.3396 15.8852C26.3351 16.0309 26.4227 16.101 26.5818 16.0274C26.7072 15.964 26.8537 15.9349 26.9791 15.8717C27.1834 15.7883 27.3772 15.6821 27.5719 15.5538C27.7549 15.4361 27.9392 15.2738 28.1336 15.1564C28.4079 14.9857 28.5726 14.733 28.6612 14.4107C28.6864 14.3217 28.6125 14.1738 28.5708 14.0715C28.5287 13.9916 28.4292 13.9436 28.364 13.8746C28.234 13.7359 28.1117 13.6984 27.9501 13.8505C27.8118 13.9693 27.6425 14.0089 27.5031 13.8029C27.4929 13.7689 27.4368 13.7671 27.4154 13.744C27.3832 13.6872 27.3187 13.6066 27.3313 13.5621C27.4048 13.3627 27.3421 13.2149 27.223 13.0768C27.1687 13.019 27.1038 12.9497 27.0726 12.8701C27.0523 12.8022 27.0558 12.6904 27.0799 12.635C27.1153 12.58 27.2159 12.5831 27.2937 12.608C27.4717 12.6472 27.5334 12.8287 27.5958 12.9874C27.7406 13.3732 27.8289 13.4208 28.1901 13.3423C28.2469 13.3216 28.3359 13.3356 28.3682 13.3812C28.4543 13.5175 28.5526 13.6155 28.6611 13.6807C28.0374 10.6284 26.2071 8.01546 23.6903 6.36179Z" fill="#6BB5FB"/>
<path d="M6.55731 17.0421C6.83297 17.0483 6.94358 17.119 7.04449 17.3585C7.06577 17.4031 7.1327 17.4403 7.19064 17.4786C7.22601 17.5048 7.29176 17.5016 7.32038 17.5368C7.44676 17.6833 7.63107 17.6274 7.7775 17.6734C7.82347 17.6021 7.85173 17.5339 7.88034 17.4658C8.13809 17.6429 8.29282 17.9364 8.24638 18.1511C8.19925 18.3656 8.15317 18.5736 8.12799 18.7787C8.12406 18.8516 8.183 18.9358 8.21258 19.0181C8.22335 19.048 8.26282 19.1039 8.24406 19.1321C8.19348 19.3111 8.23584 19.4482 8.43179 19.5266C8.77917 19.669 8.97864 19.9204 9.17357 20.1888C9.33108 20.3934 9.49801 20.563 9.79259 20.5778C10.1084 20.5955 10.2529 20.6939 10.3662 20.9454C10.4448 21.1257 10.5047 21.3031 10.5837 21.4921C10.691 21.7541 10.7782 22.0234 10.9278 22.2669C11.0365 22.4563 11.1013 22.6348 11.1639 22.8395C11.2472 23.129 11.3771 23.4314 11.5275 23.7196C11.5511 23.7708 11.6446 23.8161 11.7031 23.8558C11.7351 23.8875 11.75 23.9248 11.7688 23.9522C11.8141 24.0642 11.8722 24.1634 11.9329 24.279C11.9943 24.4115 12.1123 24.5589 11.8669 24.6192C12.062 24.6372 12.1557 24.7067 12.2046 24.8446C12.2013 24.8546 12.2165 24.8749 12.2352 24.8855C12.4495 24.9985 12.458 25.1078 12.3181 25.1941C12.4873 25.3151 12.6641 25.4152 12.8362 25.5338C12.9807 25.6454 13.1335 25.6835 13.3171 25.6648C13.4755 25.6559 13.6271 25.666 13.6053 25.4917C13.6058 25.4654 13.6726 25.4394 13.7007 25.4198C13.7402 25.3871 13.7767 25.3643 13.8163 25.3318C13.7196 25.3348 13.666 25.3639 13.5914 25.3669C13.5305 25.3731 13.4336 25.3757 13.4037 25.3523C13.2413 25.2324 13.0938 25.115 12.9461 24.9802C12.9358 24.9667 12.9301 24.9171 12.9485 24.8845C12.9746 24.7631 13.002 24.642 13.0487 24.5317C13.0904 24.4144 13.0037 24.3698 12.8792 24.3466C12.7634 24.3202 12.6426 24.2867 12.4953 24.2452C12.5366 24.2138 12.5477 24.1845 12.5733 24.1755C12.7715 24.0045 12.7801 23.8843 12.6169 23.6317C12.589 23.5912 12.5986 23.4964 12.6456 23.4722C12.7892 23.3573 12.7127 23.2596 12.6069 23.1466C12.5761 23.1156 12.5539 23.0818 12.5145 23.0372C12.7437 23.0034 12.9668 22.9938 12.9577 22.7532C12.962 22.565 12.9305 22.4154 12.6451 22.3205C12.8266 22.2793 12.9773 22.2555 13.1372 22.2123C13.0159 22.0993 12.9987 22.0011 13.1126 21.9338C13.1527 21.8974 13.1636 21.8467 13.1785 21.8023C13.2794 21.5735 13.2043 21.3548 13.0792 21.1275C13.0043 21.0097 13.0433 20.9129 13.1409 20.8307C13.261 20.734 13.3901 20.6351 13.4956 20.5285C13.5587 20.4569 13.5822 20.3667 13.5823 20.2683C13.6083 20.1625 13.5785 20.0429 13.6099 19.944C13.6525 19.8271 13.7013 19.7021 13.5981 19.5886C13.3707 19.3371 13.3916 19.0932 13.5604 18.8453C13.5878 18.7945 13.6214 18.7348 13.6348 18.673C13.7001 18.5254 13.6655 18.3679 13.5199 18.2944C13.2199 18.1277 12.9022 18.0261 12.5502 18.0689C12.3576 18.0977 12.179 18.0863 11.9988 18.0149C11.8531 17.9582 11.6824 17.8833 11.5142 18.0088C11.5393 17.7498 11.4196 17.5605 11.2275 17.4055C11.1693 17.3726 11.0664 17.3185 11.0055 17.3379C10.629 17.4494 10.2998 17.2801 9.96365 17.167C9.93442 17.1648 9.91507 17.1304 9.90696 17.1015C9.8092 16.9224 9.74564 16.8954 9.56101 17.0191C9.38594 17.1414 9.20395 17.0668 9.029 17.0505C8.93946 17.0353 8.85704 17.0108 8.78566 16.9919C8.80722 17.0733 8.82027 17.1559 8.8428 17.237C8.84493 17.2446 8.83762 17.2534 8.84381 17.2756C8.8057 17.2745 8.75125 17.284 8.74717 17.2692C8.71361 17.1485 8.68116 17.0276 8.64985 16.9066C8.43852 17.1117 8.20027 17.2535 8.19036 17.554C7.93383 17.3865 7.93215 17.3776 7.67108 17.5332C7.58396 17.5957 7.51658 17.5596 7.4413 17.4926C7.23436 17.3281 7.2109 17.0925 7.15732 16.8706C7.10949 16.6318 7.06723 16.6063 6.83159 16.6887C6.79533 16.6941 6.76979 16.7058 6.75155 16.7085C6.68594 16.7101 6.62035 16.7117 6.55652 16.721C6.55161 16.6575 6.54665 16.5942 6.544 16.5386C6.55578 16.3368 6.57055 16.1354 6.58667 15.9265C6.30255 15.9554 6.2389 16.0192 6.22691 16.2376C6.22856 16.2934 6.22107 16.391 6.18622 16.4038C6.0805 16.4471 5.97131 16.5203 5.85864 16.5237C5.8628 16.6167 5.86806 16.7094 5.87441 16.8018C5.99709 16.8178 6.11007 16.8709 6.23024 16.9377C6.32708 16.9882 6.4422 17.0352 6.55731 17.0421Z" fill="#6BB5FB"/>
<g opacity="0.3">
<path d="M23.7769 6.42157C25.6286 8.46626 26.7661 11.1697 26.7661 14.1454C26.7661 20.5099 21.6067 25.6693 15.2421 25.6693C12.8709 25.6693 10.6681 24.9515 8.83594 23.7237C10.9445 26.0522 13.982 27.5238 17.3707 27.5238C23.7352 27.5238 28.8947 22.3643 28.8947 15.9999C28.8947 12.0066 26.8625 8.48934 23.7769 6.42157Z" fill="#384E85"/>
</g>
<path d="M5.92664 14.8483C6.14719 14.5538 6.16621 14.5545 6.54759 14.712C6.6066 14.7374 6.68892 14.7286 6.74245 14.7148C6.83999 14.681 6.88162 14.7158 6.89352 14.8007C6.91826 14.8447 6.9078 14.9009 6.93396 14.953C6.99082 15.1504 7.11097 15.2537 7.30867 15.2684C7.23516 15.1059 7.16616 14.9577 7.10574 14.7929C7.07862 14.7334 7.06006 14.6651 7.06101 14.6028C7.07624 14.367 7.18354 14.1695 7.37886 14.0116C7.5561 13.8555 7.58656 13.6997 7.49591 13.4924C7.47283 13.433 7.45119 13.3887 7.41907 13.3297C7.47093 13.2871 7.52422 13.2595 7.56728 13.2176C7.7393 13.0506 7.94104 12.8979 8.07927 12.7211C8.20846 12.5529 8.3512 12.4449 8.55866 12.3559C8.57889 12.4218 8.59911 12.4727 8.62885 12.5229C8.68357 12.5191 8.75708 12.5284 8.79277 12.5034C8.97192 12.4083 9.13299 12.3152 9.30357 12.2148C9.39326 12.157 9.4092 12.0681 9.32545 11.9855C9.29834 12.0019 9.27121 12.011 9.24433 12.035C9.01998 12.1972 8.91839 12.183 8.80467 11.9519C8.79514 11.9079 8.76707 11.8575 8.77612 11.8197C8.82013 11.6165 8.68499 11.5423 8.48467 11.5297C8.47539 11.5301 8.47563 11.5151 8.45779 11.4785C8.63075 11.4699 8.78563 11.4549 8.94956 11.454C9.10443 11.4461 9.26812 11.4597 9.44132 11.4576C9.4387 11.3974 9.44679 11.3469 9.46654 11.3053C9.64117 11.2834 9.83816 11.2377 9.96449 11.1121C9.98828 11.0883 10.2026 10.652 10.0684 10.6696C10.3309 10.6351 10.5933 10.6006 10.8559 10.5661C10.9437 10.5545 11.0408 10.5378 11.0953 10.4681C11.1343 10.4181 11.1426 10.3515 11.1488 10.2882C11.1826 9.93422 11.1947 9.56664 11.2806 9.225C11.3491 9.11533 11.4155 9.00541 11.4757 8.89026C11.5566 8.75656 11.6192 8.70065 11.7778 8.72825C11.9275 8.75585 12.0436 8.69946 12.174 8.60977C12.3255 8.49914 12.4918 8.41706 12.6738 8.34926C12.9146 8.25457 13.1672 8.20152 13.4152 8.12205C13.4818 8.1023 13.5686 8.06947 13.5734 8.04283C13.5993 7.8958 13.7154 7.90389 13.8515 7.89841C13.8624 7.73901 13.8743 7.58628 13.8853 7.44662C13.9264 7.42092 13.9735 7.36858 14.0268 7.33004C14.1455 7.23963 14.2971 7.16445 14.2838 7.02527C14.2528 6.88538 14.2785 6.77975 14.5388 6.75001C14.3984 6.65913 14.29 6.58823 14.1746 6.50948C14.5716 6.30059 14.934 6.1017 15.2873 5.91327C15.1288 5.80669 14.5157 5.79979 14.2638 5.91875C14.1077 5.98964 14.0896 5.98893 14.0111 5.91661C14.175 5.81859 14.3271 5.73437 14.4919 5.63825C14.2207 5.5193 13.9645 5.41176 13.7097 5.30185C13.6978 5.3009 13.6861 5.29994 13.6742 5.29899C13.506 5.28923 13.3416 5.27544 13.1768 5.26307C12.9211 5.36299 12.5994 5.50812 12.2629 5.66695C8.80863 7.37776 6.33512 10.7697 5.9115 14.7732C5.90881 14.7988 5.90621 14.824 5.90381 14.8483H5.92664V14.8483Z" fill="#6BB5FB"/>
<path d="M28.1258 11.8982C28.2149 12.1323 28.2919 12.3718 28.3661 12.6129C32.0677 14.194 31.4957 16.5126 26.63 17.9057C21.0837 19.4936 12.0307 19.4936 6.44824 17.9057C0.865696 16.3178 0.836205 13.5747 6.38242 11.9867C6.45371 11.9663 6.53199 11.9492 6.60441 11.9293C6.67832 11.7336 6.7607 11.5423 6.8448 11.3519C6.34945 11.4627 5.86656 11.5801 5.41117 11.7105C-0.669689 13.4515 -0.63735 16.2814 5.48328 18.0223C11.5996 19.7621 21.5204 19.7633 27.6012 18.0223C33.4671 16.3428 33.6227 13.6482 28.1258 11.8982Z" fill="#B7C5FD"/>
<path d="M26.5327 22.9533C26.4914 23.0109 26.4543 23.072 26.4119 23.1288C27.1235 25.8245 25.0358 26.532 21.0604 24.5257C15.9101 21.9264 9.2629 15.7805 6.24192 10.8248C3.22099 5.86896 5.11372 3.93791 10.2641 6.53721C10.3647 6.58803 10.4683 6.64595 10.5711 6.70224C10.7209 6.59228 10.875 6.48826 11.0302 6.38553C10.5928 6.13068 10.1595 5.88748 9.73849 5.67498C4.09169 2.82517 2.19427 4.92498 5.50641 10.3584C8.81626 15.7881 16.0998 22.524 21.7466 25.3738C26.7368 27.8923 28.7897 26.5334 26.9107 22.4315C26.79 22.6097 26.6629 22.7824 26.5327 22.9533Z" fill="#B7C5FD"/>
<path d="M17.7797 4.0333C17.6472 4.17276 17.5174 4.32784 17.3864 4.47705C17.709 4.47752 18.0267 4.49701 18.3419 4.52526C21.9757 1.15291 24.9836 2.99785 24.8641 8.71359C24.7383 14.7343 21.4486 22.9857 17.5306 27.1085C14.0287 30.7933 10.9705 29.7491 10.4973 25.2299C10.2367 25.0357 9.98377 24.8322 9.74072 24.6173C9.75545 30.8622 13.0779 32.386 17.2793 27.965C21.572 23.4481 25.1784 14.4064 25.3164 7.8054C25.4544 1.20904 22.0723 -0.483608 17.7797 4.0333Z" fill="#B7C5FD"/>
<path d="M26.7448 9.33018C26.8839 9.52588 27.0173 9.72529 27.1442 9.92979C30.6316 10.0495 30.9079 12.2194 27.2885 15.2031C23.0114 18.7291 15.0358 22.2011 9.50872 22.9432C4.46212 23.6207 3.09897 21.6904 6.16921 18.6831C6.11952 18.4767 6.07815 18.2673 6.03979 18.0566C1.53604 21.8463 2.68304 24.2636 8.67327 23.4594C14.7289 22.6464 23.4694 18.8426 28.1588 14.9767C32.554 11.3534 31.8458 8.94455 26.7448 9.33018Z" fill="#B7C5FD"/>
<path d="M12.0987 23.4598C12.4799 23.4598 12.789 23.1507 12.789 22.7695C12.789 22.3883 12.4799 22.0792 12.0987 22.0792C11.7175 22.0792 11.4084 22.3883 11.4084 22.7695C11.4084 23.1507 11.7175 23.4598 12.0987 23.4598Z" fill="#384E85"/>
<path d="M3.71811 18.3003C4.27504 18.3003 4.72651 17.8488 4.72651 17.2919C4.72651 16.735 4.27504 16.2835 3.71811 16.2835C3.16119 16.2835 2.70972 16.735 2.70972 17.2919C2.70972 17.8488 3.16119 18.3003 3.71811 18.3003Z" fill="#384E85"/>
<path d="M8.83577 6.29772C9.217 6.29772 9.52604 5.98868 9.52604 5.60745C9.52604 5.22623 9.217 4.91719 8.83577 4.91719C8.45455 4.91719 8.14551 5.22623 8.14551 5.60745C8.14551 5.98868 8.45455 6.29772 8.83577 6.29772Z" fill="#384E85"/>
<path d="M25.0694 9.56388C25.6264 9.56388 26.0778 9.11241 26.0778 8.55549C26.0778 7.99856 25.6264 7.54709 25.0694 7.54709C24.5125 7.54709 24.061 7.99856 24.061 8.55549C24.061 9.11241 24.5125 9.56388 25.0694 9.56388Z" fill="#384E85"/>
<path d="M22.6964 19.4919C23.0927 19.4919 23.414 19.1706 23.414 18.7743C23.414 18.3779 23.0927 18.0566 22.6964 18.0566C22.3001 18.0566 21.9788 18.3779 21.9788 18.7743C21.9788 19.1706 22.3001 19.4919 22.6964 19.4919Z" fill="#384E85"/>
<path d="M30.8741 17.0084C31.431 17.0084 31.8825 16.5569 31.8825 16C31.8825 15.4431 31.431 14.9916 30.8741 14.9916C30.3172 14.9916 29.8657 15.4431 29.8657 16C29.8657 16.5569 30.3172 17.0084 30.8741 17.0084Z" fill="#384E85"/>
<path d="M15.7376 30.0008C16.2946 30.0008 16.746 29.5493 16.746 28.9924C16.746 28.4355 16.2946 27.984 15.7376 27.984C15.1807 27.984 14.7292 28.4355 14.7292 28.9924C14.7292 29.5493 15.1807 30.0008 15.7376 30.0008Z" fill="#384E85"/>
</g>
<defs>
<clipPath id="clip0_49_2092">
<rect width="32" height="32" fill="white" transform="translate(0.5)"/>
</clipPath>
</defs>
</svg>
