<svg width="20" height="20" viewBox="0 0 20 20" fill="none" xmlns="http://www.w3.org/2000/svg">
<path d="M14.8428 17.5782H5.58496C5.42956 17.5782 5.28053 17.5164 5.17064 17.4065C5.06076 17.2967 4.99902 17.1476 4.99902 16.9922V8.34613C4.99902 8.19073 5.06076 8.04169 5.17064 7.93181C5.28053 7.82193 5.42956 7.76019 5.58496 7.76019H14.8428C14.9982 7.76019 15.1472 7.82193 15.2571 7.93181C15.367 8.04169 15.4287 8.19073 15.4287 8.34613V16.9922C15.4287 17.1476 15.367 17.2967 15.2571 17.4065C15.1472 17.5164 14.9982 17.5782 14.8428 17.5782ZM6.1709 16.4063H14.2568V8.93207H6.1709V16.4063Z" fill="black"/>
<path d="M13.7358 8.93204H6.69482C6.53942 8.93204 6.39039 8.87031 6.2805 8.76043C6.17062 8.65054 6.10889 8.50151 6.10889 8.34611V5.98126C6.11944 4.8991 6.55673 3.86485 7.32569 3.10335C8.09465 2.34186 9.13312 1.91467 10.2153 1.91467C11.2975 1.91467 12.336 2.34186 13.105 3.10335C13.8739 3.86485 14.3112 4.8991 14.3218 5.98126V8.34611C14.3218 8.50151 14.26 8.65054 14.1502 8.76043C14.0403 8.87031 13.8912 8.93204 13.7358 8.93204ZM7.28076 7.76017H13.1499V5.98126C13.141 5.20883 12.8279 4.47106 12.2785 3.92799C11.7291 3.38492 10.9878 3.08035 10.2153 3.08035C9.44285 3.08035 8.70151 3.38492 8.15214 3.92799C7.60277 4.47106 7.28967 5.20883 7.28076 5.98126V7.76017Z" fill="black"/>
<path d="M10.2153 13.7762C9.85608 13.7762 9.5049 13.6697 9.20619 13.4701C8.90748 13.2705 8.67467 12.9868 8.53719 12.6549C8.39971 12.323 8.36374 11.9578 8.43383 11.6054C8.50391 11.2531 8.67691 10.9294 8.93094 10.6754C9.18497 10.4214 9.50862 10.2484 9.86097 10.1783C10.2133 10.1082 10.5785 10.1442 10.9104 10.2816C11.2423 10.4191 11.526 10.6519 11.7256 10.9506C11.9252 11.2493 12.0317 11.6005 12.0317 11.9598C12.0312 12.4414 11.8397 12.9031 11.4992 13.2436C11.1586 13.5841 10.6969 13.7757 10.2153 13.7762ZM10.2153 11.3152C10.0879 11.3152 9.96324 11.353 9.85725 11.4239C9.75126 11.4947 9.66865 11.5954 9.61986 11.7131C9.57108 11.8309 9.55832 11.9605 9.58319 12.0855C9.60806 12.2105 9.66944 12.3254 9.75958 12.4155C9.84972 12.5057 9.96456 12.5671 10.0896 12.5919C10.2146 12.6168 10.3442 12.604 10.462 12.5552C10.5798 12.5065 10.6804 12.4239 10.7512 12.3179C10.8221 12.2119 10.8599 12.0873 10.8599 11.9598C10.8597 11.7889 10.7917 11.6251 10.6709 11.5043C10.55 11.3834 10.3862 11.3155 10.2153 11.3152Z" fill="black"/>
<path d="M10.2153 15.1953C10.0599 15.1953 9.9109 15.1336 9.80101 15.0237C9.69113 14.9138 9.62939 14.7648 9.62939 14.6094V13.1902C9.62939 13.0348 9.69113 12.8858 9.80101 12.7759C9.9109 12.666 10.0599 12.6043 10.2153 12.6043C10.3707 12.6043 10.5198 12.666 10.6297 12.7759C10.7395 12.8858 10.8013 13.0348 10.8013 13.1902V14.6094C10.8013 14.7648 10.7395 14.9138 10.6297 15.0237C10.5198 15.1336 10.3707 15.1953 10.2153 15.1953Z" fill="black"/>
</svg>
