<svg width="24" height="24" viewBox="0 0 24 24" fill="none" xmlns="http://www.w3.org/2000/svg">
<path fill-rule="evenodd" clip-rule="evenodd" d="M12 15.3907C10.1267 15.3907 8.60933 13.872 8.60933 12C8.60933 10.1267 10.1267 8.608 12 8.608C13.8733 8.608 15.392 10.1267 15.392 12C15.392 13.872 13.8733 15.3907 12 15.3907ZM19.6107 10.92L17.9 10.6453C17.724 10.6173 17.5867 10.4893 17.536 10.3187C17.4253 9.948 17.28 9.59067 17.104 9.25467C17.0227 9.10133 17.028 8.91867 17.128 8.77733L18.1267 7.35333C18.256 7.168 18.2347 6.91867 18.076 6.76L17.216 5.9C17.0547 5.73867 16.8 5.71867 16.616 5.85333L15.2267 6.86267C15.0827 6.968 14.8933 6.97467 14.7373 6.88933C14.4 6.70533 14.044 6.548 13.672 6.432C13.5067 6.38133 13.3813 6.24933 13.3507 6.07867L13.0547 4.38267C13.0147 4.16133 12.8227 4 12.5987 4H11.3773C11.1493 4 10.956 4.164 10.92 4.388L10.6467 6.06933C10.6187 6.24533 10.4893 6.38267 10.3187 6.43333C9.94667 6.544 9.59333 6.688 9.25733 6.86533C9.10267 6.94667 8.91867 6.94133 8.776 6.83867L7.384 5.84667C7.19867 5.716 6.94667 5.73733 6.788 5.89733L5.924 6.76C5.76533 6.91867 5.744 7.168 5.872 7.352L6.84533 8.74933C6.944 8.89067 6.948 9.07067 6.868 9.224C6.68933 9.56667 6.54533 9.93867 6.43333 10.3187C6.384 10.4893 6.24533 10.6173 6.07067 10.6467L4.38933 10.92C4.16533 10.956 4 11.1493 4 11.3773V12.5973C4 12.8227 4.16133 13.0147 4.38267 13.0547L6.07467 13.3493C6.248 13.38 6.38267 13.5093 6.432 13.6787C6.54133 14.0507 6.68267 14.4053 6.86267 14.7413C6.94533 14.896 6.94133 15.0813 6.83867 15.224L5.848 16.616C5.71733 16.8 5.73867 17.052 5.89733 17.212L6.76267 18.0773C6.92133 18.2347 7.168 18.2573 7.352 18.132L8.77733 17.1533C8.92 17.056 9.10133 17.052 9.252 17.132C9.59067 17.312 9.94667 17.456 10.3187 17.5653C10.4893 17.616 10.6187 17.7533 10.6467 17.9293L10.92 19.6107C10.956 19.8347 11.1493 20 11.3773 20H12.5987C12.8227 20 13.0147 19.8373 13.0547 19.616L13.3507 17.9187C13.3813 17.7493 13.5067 17.616 13.672 17.5653C14.0453 17.4493 14.404 17.292 14.7427 17.108C14.896 17.0227 15.0827 17.028 15.2253 17.1293L16.6467 18.1253C16.8307 18.2547 17.0813 18.2333 17.24 18.0747L18.1 17.2147C18.26 17.0533 18.28 16.8 18.1467 16.6147L17.1347 15.224C17.0307 15.0813 17.024 14.896 17.1067 14.74C17.2827 14.404 17.4267 14.048 17.5373 13.6773C17.5867 13.508 17.7227 13.38 17.896 13.3507L19.616 13.0533C19.8373 13.0147 20 12.8227 20 12.5973V11.3773C20 11.1507 19.8347 10.9573 19.6107 10.92Z" fill="#055425"/>
<mask id="mask0_165_2193" style="mask-type:alpha" maskUnits="userSpaceOnUse" x="4" y="4" width="16" height="16">
<path fill-rule="evenodd" clip-rule="evenodd" d="M12 15.3907C10.1267 15.3907 8.60933 13.872 8.60933 12C8.60933 10.1267 10.1267 8.608 12 8.608C13.8733 8.608 15.392 10.1267 15.392 12C15.392 13.872 13.8733 15.3907 12 15.3907ZM19.6107 10.92L17.9 10.6453C17.724 10.6173 17.5867 10.4893 17.536 10.3187C17.4253 9.948 17.28 9.59067 17.104 9.25467C17.0227 9.10133 17.028 8.91867 17.128 8.77733L18.1267 7.35333C18.256 7.168 18.2347 6.91867 18.076 6.76L17.216 5.9C17.0547 5.73867 16.8 5.71867 16.616 5.85333L15.2267 6.86267C15.0827 6.968 14.8933 6.97467 14.7373 6.88933C14.4 6.70533 14.044 6.548 13.672 6.432C13.5067 6.38133 13.3813 6.24933 13.3507 6.07867L13.0547 4.38267C13.0147 4.16133 12.8227 4 12.5987 4H11.3773C11.1493 4 10.956 4.164 10.92 4.388L10.6467 6.06933C10.6187 6.24533 10.4893 6.38267 10.3187 6.43333C9.94667 6.544 9.59333 6.688 9.25733 6.86533C9.10267 6.94667 8.91867 6.94133 8.776 6.83867L7.384 5.84667C7.19867 5.716 6.94667 5.73733 6.788 5.89733L5.924 6.76C5.76533 6.91867 5.744 7.168 5.872 7.352L6.84533 8.74933C6.944 8.89067 6.948 9.07067 6.868 9.224C6.68933 9.56667 6.54533 9.93867 6.43333 10.3187C6.384 10.4893 6.24533 10.6173 6.07067 10.6467L4.38933 10.92C4.16533 10.956 4 11.1493 4 11.3773V12.5973C4 12.8227 4.16133 13.0147 4.38267 13.0547L6.07467 13.3493C6.248 13.38 6.38267 13.5093 6.432 13.6787C6.54133 14.0507 6.68267 14.4053 6.86267 14.7413C6.94533 14.896 6.94133 15.0813 6.83867 15.224L5.848 16.616C5.71733 16.8 5.73867 17.052 5.89733 17.212L6.76267 18.0773C6.92133 18.2347 7.168 18.2573 7.352 18.132L8.77733 17.1533C8.92 17.056 9.10133 17.052 9.252 17.132C9.59067 17.312 9.94667 17.456 10.3187 17.5653C10.4893 17.616 10.6187 17.7533 10.6467 17.9293L10.92 19.6107C10.956 19.8347 11.1493 20 11.3773 20H12.5987C12.8227 20 13.0147 19.8373 13.0547 19.616L13.3507 17.9187C13.3813 17.7493 13.5067 17.616 13.672 17.5653C14.0453 17.4493 14.404 17.292 14.7427 17.108C14.896 17.0227 15.0827 17.028 15.2253 17.1293L16.6467 18.1253C16.8307 18.2547 17.0813 18.2333 17.24 18.0747L18.1 17.2147C18.26 17.0533 18.28 16.8 18.1467 16.6147L17.1347 15.224C17.0307 15.0813 17.024 14.896 17.1067 14.74C17.2827 14.404 17.4267 14.048 17.5373 13.6773C17.5867 13.508 17.7227 13.38 17.896 13.3507L19.616 13.0533C19.8373 13.0147 20 12.8227 20 12.5973V11.3773C20 11.1507 19.8347 10.9573 19.6107 10.92Z" fill="white"/>
</mask>
<g mask="url(#mask0_165_2193)">
</g>
</svg>
