<svg width="20" height="20" viewBox="0 0 20 20" fill="none" xmlns="http://www.w3.org/2000/svg">
<path d="M14.8438 17.5782H5.58594C5.43054 17.5782 5.2815 17.5164 5.17162 17.4065C5.06173 17.2967 5 17.1476 5 16.9922V8.34613C5 8.19073 5.06173 8.04169 5.17162 7.93181C5.2815 7.82193 5.43054 7.76019 5.58594 7.76019H14.8438C14.9992 7.76019 15.1482 7.82193 15.2581 7.93181C15.368 8.04169 15.4297 8.19073 15.4297 8.34613V16.9922C15.4297 17.1476 15.368 17.2967 15.2581 17.4065C15.1482 17.5164 14.9992 17.5782 14.8438 17.5782ZM6.17188 16.4063H14.2578V8.93207H6.17188V16.4063Z" fill="black"/>
<path d="M13.7368 8.93204H6.6958C6.5404 8.93204 6.39137 8.87031 6.28148 8.76043C6.1716 8.65054 6.10986 8.50151 6.10986 8.34611C6.10986 8.19071 6.1716 8.04167 6.28148 7.93179C6.39137 7.8219 6.5404 7.76017 6.6958 7.76017H13.1509V5.98126C13.142 5.20883 12.8289 4.47106 12.2795 3.92799C11.7301 3.38492 10.9888 3.08035 10.2163 3.08035C9.44383 3.08035 8.70249 3.38492 8.15312 3.92799C7.60375 4.47106 7.29065 5.20883 7.28174 5.98126C7.28174 6.13666 7.22001 6.2857 7.11012 6.39558C7.00024 6.50547 6.8512 6.5672 6.6958 6.5672C6.5404 6.5672 6.39137 6.50547 6.28148 6.39558C6.1716 6.2857 6.10986 6.13666 6.10986 5.98126C6.12042 4.8991 6.55771 3.86485 7.32667 3.10335C8.09563 2.34186 9.1341 1.91467 10.2163 1.91467C11.2985 1.91467 12.337 2.34186 13.1059 3.10335C13.8749 3.86485 14.3122 4.8991 14.3228 5.98126V8.34611C14.3228 8.50151 14.261 8.65054 14.1511 8.76043C14.0413 8.87031 13.8922 8.93204 13.7368 8.93204Z" fill="black"/>
<path d="M10.2163 13.7762C9.85706 13.7762 9.50587 13.6697 9.20717 13.4701C8.90846 13.2705 8.67565 12.9868 8.53817 12.6549C8.40069 12.323 8.36472 11.9578 8.4348 11.6054C8.50489 11.2531 8.67789 10.9294 8.93192 10.6754C9.18594 10.4214 9.5096 10.2484 9.86195 10.1783C10.2143 10.1082 10.5795 10.1442 10.9114 10.2816C11.2433 10.4191 11.527 10.6519 11.7266 10.9506C11.9262 11.2493 12.0327 11.6005 12.0327 11.9598C12.0322 12.4414 11.8407 12.9031 11.5001 13.2436C11.1596 13.5841 10.6979 13.7757 10.2163 13.7762ZM10.2163 11.3152C10.0888 11.3152 9.96422 11.353 9.85823 11.4239C9.75223 11.4947 9.66962 11.5954 9.62084 11.7131C9.57206 11.8309 9.55929 11.9605 9.58416 12.0855C9.60903 12.2105 9.67042 12.3254 9.76056 12.4155C9.8507 12.5057 9.96554 12.5671 10.0906 12.5919C10.2156 12.6168 10.3452 12.604 10.463 12.5552C10.5807 12.5065 10.6814 12.4239 10.7522 12.3179C10.823 12.2119 10.8608 12.0873 10.8608 11.9598C10.8606 11.7889 10.7927 11.6251 10.6718 11.5043C10.551 11.3834 10.3872 11.3155 10.2163 11.3152Z" fill="black"/>
<path d="M10.2163 15.1953C10.0609 15.1953 9.91187 15.1336 9.80199 15.0237C9.6921 14.9138 9.63037 14.7648 9.63037 14.6094V13.1902C9.63037 13.0348 9.6921 12.8858 9.80199 12.7759C9.91187 12.666 10.0609 12.6043 10.2163 12.6043C10.3717 12.6043 10.5207 12.666 10.6306 12.7759C10.7405 12.8858 10.8022 13.0348 10.8022 13.1902V14.6094C10.8022 14.7648 10.7405 14.9138 10.6306 15.0237C10.5207 15.1336 10.3717 15.1953 10.2163 15.1953Z" fill="black"/>
</svg>
